<?xml version="1.0" encoding="UTF-8" standalone="no"?>
<!-- Created with Inkscape (http://www.inkscape.org/) -->

<svg
   xmlns:dc="http://purl.org/dc/elements/1.1/"
   xmlns:cc="http://creativecommons.org/ns#"
   xmlns:rdf="http://www.w3.org/1999/02/22-rdf-syntax-ns#"
   xmlns:svg="http://www.w3.org/2000/svg"
   xmlns="http://www.w3.org/2000/svg"
   xmlns:sodipodi="http://sodipodi.sourceforge.net/DTD/sodipodi-0.dtd"
   xmlns:inkscape="http://www.inkscape.org/namespaces/inkscape"
   width="144.99998mm"
   height="140.71227mm"
   viewBox="0 0 513.77947 498.58676"
   id="svg2"
   version="1.1"
   inkscape:version="0.91 r13725"
   sodipodi:docname="slop_tray.svg">
  <defs
     id="defs4" />
  <sodipodi:namedview
     id="base"
     pagecolor="#ffffff"
     bordercolor="#666666"
     borderopacity="1.0"
     inkscape:pageopacity="0.0"
     inkscape:pageshadow="2"
     inkscape:zoom="2.8284271"
     inkscape:cx="250.20359"
     inkscape:cy="255.98005"
     inkscape:document-units="px"
     inkscape:current-layer="layer1"
     showgrid="false"
     inkscape:window-width="1920"
     inkscape:window-height="1016"
     inkscape:window-x="0"
     inkscape:window-y="27"
     inkscape:window-maximized="1"
     fit-margin-top="0"
     fit-margin-left="0"
     fit-margin-right="0"
     fit-margin-bottom="0">
    <inkscape:grid
       type="xygrid"
       id="grid4272"
       enabled="false"
       visible="false"
       originx="-125.5976"
       originy="-496.87557" />
    <inkscape:grid
       type="axonomgrid"
       id="grid4274"
       units="mm"
       empspacing="5"
       originx="-125.5976"
       originy="-496.87557" />
  </sodipodi:namedview>
  <metadata
     id="metadata7">
    <rdf:RDF>
      <cc:Work
         rdf:about="">
        <dc:format>image/svg+xml</dc:format>
        <dc:type
           rdf:resource="http://purl.org/dc/dcmitype/StillImage" />
        <dc:title />
      </cc:Work>
    </rdf:RDF>
  </metadata>
  <g
     inkscape:label="Layer 1"
     inkscape:groupmode="layer"
     id="layer1"
     transform="translate(-125.5976,-56.899884)">
    <path
       style="opacity:1;fill:#000000;fill-opacity:1"
       d="M 256.88867,0 C 115.01317,8.02e-4 8e-4,115.01323 0,256.88867 c 0.1409,108.49468 68.426994,205.20412 170.62109,241.63867 27.674,-9.96567 56.85408,-15.10517 86.26758,-15.19336 29.4183,0.10689 58.59989,5.2655 86.27149,15.25196 C 445.37406,462.14334 513.6639,365.40476 513.7793,256.88867 513.7785,115.01246 398.76487,-2.88e-4 256.88867,0 Z m -68.82226,86.306642 13.05273,0 6.52734,11.304687 -6.52734,11.304691 -13.05273,0 -6.52735,-11.304691 z m 62.38086,0 13.05078,0 6.52734,11.302734 -6.52734,11.306644 -13.05274,0 -3.26367,-5.65235 -3.26172,-5.652341 z m 62.375,0 13.05273,0 6.5293,11.304687 -3.26368,5.652341 -3.26171,5.65235 -13.05664,0 -6.52735,-11.304691 0,-0.002 z m -155.94532,18.005858 13.05274,0 6.52929,11.30469 -6.52929,11.30469 -13.05274,0 -6.52734,-11.30274 z m 62.37891,0 13.05469,0 6.52539,11.30664 -3.26172,5.65234 -3.26367,5.6504 -13.05469,0 -6.52734,-11.30469 z m 62.37891,0 13.05273,0 6.52734,11.30664 -3.26562,5.65234 -3.26172,5.6504 -13.05273,0 -6.52735,-11.30274 z m 62.37695,0 13.05469,0 6.52539,11.30664 -3.26172,5.65234 -3.26367,5.6504 -13.05469,0 -6.52734,-11.30469 z m -218.32227,18.00781 13.05274,0 6.52539,11.30274 -3.26367,5.65625 -3.26172,5.65234 -13.05274,0 -3.26367,-5.65234 -3.26172,-5.65625 z m 62.37696,0 13.05273,0 6.52734,11.30274 -6.52734,11.30859 -13.05273,0 -6.52735,-11.30859 z m 62.3789,0 13.05274,0 6.52734,11.30274 -6.52734,11.30859 -13.05274,0 -3.26367,-5.65234 -3.26172,-5.65625 z m 62.37696,0 13.05273,0 6.5293,11.30274 -3.26368,5.65625 -3.26171,5.65234 -13.05664,0 -6.52735,-11.30859 z m 62.3789,0 13.05469,0 6.52539,11.30274 -6.52539,11.30859 -13.05469,0 -3.26172,-5.65234 -3.26367,-5.65625 z M 94.5,140.32617 l 13.05273,0 6.52539,11.30664 -3.26367,5.65039 -3.25976,5.65235 -13.05469,0 -6.527344,-11.30274 0,-0.002 L 94.5,140.32812 Z m 62.37695,0 13.05274,0 6.52929,11.30664 -6.52929,11.30274 -13.05274,0 -6.52734,-11.30274 z m 62.38086,0 13.05274,0 6.52539,11.30664 -3.26172,5.65039 -3.26367,5.65235 -13.05469,0 -6.52539,-11.30274 z m 62.37696,0 13.05273,0 6.52734,11.30664 -3.26562,5.65039 -3.26172,5.65235 -13.05273,0 -6.52735,-11.30274 z m 62.3789,0 13.05274,0 6.52539,11.30664 -3.26172,5.65039 -3.26367,5.65235 -13.05469,0 -6.52539,-11.30274 z m 62.37695,0 13.05274,0 6.52734,11.30664 -3.26172,5.65039 -3.26562,5.65235 -13.05274,0 -6.52539,-11.30274 z m -280.70117,18.00977 13.05274,0 6.52539,11.30273 -3.26367,5.6543 -3.26172,5.65039 -13.05274,0 -3.26367,-5.65039 -3.26172,-5.6543 z m 62.37696,0 13.05273,0 6.52734,11.30273 -6.52734,11.30469 -13.05273,0 -3.26368,-5.65039 -3.26367,-5.6543 z m 62.3789,0 13.05274,0 6.52734,11.30078 -6.52734,11.30664 -13.05274,0 -3.26367,-5.65039 -3.26172,-5.6543 z m 62.37696,0 13.05273,0 6.5293,11.30273 -3.26368,5.6543 -3.26171,5.65039 -13.05664,0 -6.52735,-11.30469 0,-0.002 z m 62.3789,0 13.05469,0 6.52539,11.30078 -6.52539,11.30664 -13.05469,0 -3.26172,-5.65039 -3.26367,-5.6543 z M 94.5,176.3418 l 13.05273,0 6.52539,11.30468 -3.26367,5.6504 -3.25976,5.65234 -13.05469,0 -6.527344,-11.30274 0,-0.002 L 94.5,176.34375 Z m 62.37695,0 13.05274,0 6.52929,11.30273 -6.52929,11.30469 -13.05274,0 -6.52734,-11.30274 z m 62.37891,0 13.05469,0 6.52539,11.30468 -3.26172,5.6504 -3.26367,5.65234 -13.05469,0 -6.52734,-11.30469 z m 62.37891,0 13.05273,0 6.52734,11.30468 -3.26562,5.6504 -3.26172,5.65234 -13.05273,0 -6.52735,-11.30274 z m 62.37695,0 13.05469,0 6.52539,11.30468 -3.26172,5.6504 -3.26367,5.65234 -13.05469,0 -6.52734,-11.30469 z m 62.3789,0 13.05274,0 6.52734,11.30468 -3.26172,5.6504 -3.26562,5.65234 -13.05274,0 -6.52539,-11.30274 z m -343.080073,18.00781 13.052734,0 6.527344,11.30273 -3.261719,5.6543 -3.265625,5.65234 -13.052734,0 -6.527344,-11.30664 z m 62.378903,0 13.05274,0 6.52539,11.30273 -3.26367,5.6543 -3.26172,5.65234 -13.05274,0 -3.26367,-5.65234 -3.26172,-5.6543 z m 62.37696,0 13.05273,0 6.52734,11.30273 -6.52734,11.30664 -13.05273,0 -6.52735,-11.30664 z m 62.3789,0 13.05274,0 6.52734,11.30273 -6.52734,11.30664 -13.05274,0 -3.26367,-5.65234 -3.26172,-5.6543 z m 62.37696,0 13.05273,0 6.5293,11.30273 -3.26368,5.6543 -3.26171,5.65234 -13.05664,0 -6.52735,-11.30664 z m 62.3789,0 13.05469,0 6.52539,11.30273 -6.52539,11.30664 -13.05469,0 -3.26172,-5.65234 -3.26367,-5.6543 z m 62.37891,0 13.05273,0 6.52735,11.30273 -3.26368,5.6543 -3.26171,5.65234 -13.05469,0 -6.52735,-11.30664 z M 94.5,212.35547 l 13.05273,0 6.52539,11.30664 -3.26367,5.65234 -3.25976,5.65039 -13.05469,0 -6.527344,-11.30273 0,-0.002 z m 62.37695,0 13.05274,0 6.52929,11.30664 -6.52929,11.30273 -13.05274,0 -6.52734,-11.30273 z m 62.38086,0 13.05274,0 6.52539,11.30664 -3.26172,5.65234 -3.26367,5.65039 -13.05469,0 -6.52539,-11.30273 z m 62.37696,0 13.05273,0 6.52734,11.30664 -3.26562,5.65234 -3.26172,5.65039 -13.05273,0 -6.52735,-11.30273 z m 62.3789,0 13.05274,0 6.52539,11.30664 -3.26172,5.65234 -3.26367,5.65039 -13.05469,0 -6.52539,-11.30273 z m 62.37695,0 13.05274,0 6.52734,11.30664 -3.26172,5.65234 -3.26562,5.65039 -13.05274,0 -6.52539,-11.30273 z m -343.080073,18.00781 13.052734,0 6.527344,11.30469 -3.261719,5.65039 -3.265625,5.6543 -13.052734,0 -6.527344,-11.30469 z m 62.378903,0 13.05274,0 6.52539,11.30469 -3.26367,5.65039 -3.26172,5.6543 -13.05274,0 -3.26367,-5.6543 -3.26172,-5.65039 z m 124.75586,0 13.05274,0 6.52734,11.30274 -6.52734,11.30664 -13.05274,0 -3.26367,-5.6543 -3.26172,-5.65039 z m 124.75586,0 13.05469,0 6.52539,11.30274 -6.52539,11.30664 -13.05469,0 -3.26172,-5.6543 -3.26367,-5.65039 z m 62.37891,0 13.05273,0 6.52735,11.30469 -3.26368,5.65039 -3.26171,5.6543 -13.05469,0 -6.52735,-11.30469 0,-0.002 z M 194.74609,246.4668 c 17.1215,-6.1e-4 31.00156,13.8785 31.00196,31 6e-4,17.12226 -13.87966,31.00256 -31.00196,31.00195 -17.1215,-4.7e-4 -31.0006,-13.88046 -31,-31.00195 5e-4,-17.12073 13.8792,-30.99952 31,-31 z m 124.28516,0 c 17.1215,-6.1e-4 31.00145,13.8785 31.00195,31 6e-4,17.12226 -13.87965,31.00256 -31.00195,31.00195 -17.1214,-4.7e-4 -31.0006,-13.88046 -31,-31.00195 5e-4,-17.12073 13.8793,-30.99952 31,-31 z M 94.5,248.36914 l 13.05273,0 6.52539,11.30469 -3.26367,5.65234 -3.25976,5.6543 -13.05469,0 -6.527344,-11.30664 z m 311.89062,0 13.05274,0 6.52734,11.30469 -3.26172,5.65234 -3.26562,5.6543 -13.05274,0 -6.52539,-11.30664 z m -343.080073,18.00781 13.052734,0 6.527344,11.30469 -3.261719,5.6543 -3.265625,5.65039 -13.052734,0 -6.527344,-11.30469 z m 62.378903,0 13.05274,0 6.52539,11.30469 -3.26367,5.6543 -3.26172,5.65039 -13.05274,0 -3.26367,-5.65039 -3.26172,-5.6543 z m 124.75782,0 13.05078,0 6.52734,11.30274 -6.52734,11.30664 -13.05274,0 -3.26367,-5.65039 -3.26172,-5.6543 z m 124.75585,0 13.05274,0 6.52539,11.30274 -6.52539,11.30664 -13.05469,0 -3.26172,-5.65039 -3.26367,-5.6543 z m 62.37696,0 13.05273,0 6.52735,11.30469 -3.26368,5.6543 -3.26171,5.65039 -13.05469,0 -6.52735,-11.30469 0,-0.002 z M 94.5,284.38477 l 13.05273,0 6.52539,11.30468 -3.26367,5.65039 -3.25976,5.65235 -13.05469,0 -6.527344,-11.30274 0,-0.002 L 94.5,284.38672 Z m 311.89062,0 13.05274,0 6.52734,11.30468 -3.26172,5.65039 -3.26562,5.65235 -13.05274,0 -6.52539,-11.30274 z"
       id="path3401"
       inkscape:connector-curvature="0"
       sodipodi:nodetypes="scccccscccccccccccccccccccccccccccccccccccccccccccccccccccccccccccccccccccccccccccccccccccccccccccccccccccccccccccccccccccccccccccccccccccccccccccccccccccccccccccccccccccccccccccccccccccccccccccccccccccccccccccccccccccccccccccccccccccccccccccccccccccccccccccccccccccccccccccccccccccccccccccccccccccccccccccccccccccccccccccccccccccccccccccccccccccccccccccccccccccccccccccccccccccccccccccccscsssssssscccccccccccccccccccccccccccccccccccccccccccccccccccccccccccccccccccccccccccc"
       transform="translate(125.5976,56.899884)" />
  </g>
</svg>
