<?xml version="1.0" encoding="UTF-8" standalone="no"?>
<!-- Created with Inkscape (http://www.inkscape.org/) -->

<svg
   xmlns:dc="http://purl.org/dc/elements/1.1/"
   xmlns:cc="http://creativecommons.org/ns#"
   xmlns:rdf="http://www.w3.org/1999/02/22-rdf-syntax-ns#"
   xmlns:svg="http://www.w3.org/2000/svg"
   xmlns="http://www.w3.org/2000/svg"
   xmlns:sodipodi="http://sodipodi.sourceforge.net/DTD/sodipodi-0.dtd"
   xmlns:inkscape="http://www.inkscape.org/namespaces/inkscape"
   width="144.99998mm"
   height="140.71227mm"
   viewBox="0 0 513.77947 498.58676"
   id="svg2"
   version="1.1"
   inkscape:version="0.91 r13725"
   sodipodi:docname="tropfplattesvg.svg">
  <defs
     id="defs4" />
  <sodipodi:namedview
     id="base"
     pagecolor="#ffffff"
     bordercolor="#666666"
     borderopacity="1.0"
     inkscape:pageopacity="0.0"
     inkscape:pageshadow="2"
     inkscape:zoom="0.70710678"
     inkscape:cx="404.30322"
     inkscape:cy="83.03348"
     inkscape:document-units="px"
     inkscape:current-layer="layer1"
     showgrid="false"
     inkscape:window-width="1920"
     inkscape:window-height="1016"
     inkscape:window-x="0"
     inkscape:window-y="27"
     inkscape:window-maximized="1"
     fit-margin-top="0"
     fit-margin-left="0"
     fit-margin-right="0"
     fit-margin-bottom="0">
    <inkscape:grid
       type="xygrid"
       id="grid4272"
       enabled="false"
       visible="false"
       originx="-125.5976"
       originy="-496.87557" />
    <inkscape:grid
       type="axonomgrid"
       id="grid4274"
       units="mm"
       empspacing="5"
       originx="-125.5976"
       originy="-496.87557" />
  </sodipodi:namedview>
  <metadata
     id="metadata7">
    <rdf:RDF>
      <cc:Work
         rdf:about="">
        <dc:format>image/svg+xml</dc:format>
        <dc:type
           rdf:resource="http://purl.org/dc/dcmitype/StillImage" />
        <dc:title></dc:title>
      </cc:Work>
    </rdf:RDF>
  </metadata>
  <g
     inkscape:label="Layer 1"
     inkscape:groupmode="layer"
     id="layer1"
     transform="translate(-125.5976,-56.899884)">
    <path
       style="opacity:1;fill:#000000;fill-opacity:1"
       d="M 382.4864,56.899884 C 240.6109,56.900686 125.5984,171.91326 125.5976,313.7887 c 0.1409,108.49468 68.4274,205.20366 170.6215,241.63821 27.674,-9.96567 56.8538,-15.10463 86.2673,-15.19282 29.4183,0.10689 58.5996,5.26608 86.2712,15.25254 C 570.9715,519.04403 639.2617,422.30479 639.3771,313.7887 639.3763,171.91249 524.3626,56.899596 382.4864,56.899884 Z m -6.4443,50.292736 13.0543,0 6.5272,11.30117 -6.5272,11.30695 -13.0543,0 -3.2636,-5.65058 -3.2617,-5.65445 z m -46.1179,5.55425 3.3195,5.74884 -6.5272,11.30503 -13.0525,0 -3.2636,-5.65058 -2.4755,-4.28852 c 7.1492,-2.76581 14.4895,-5.14695 21.9993,-7.11477 z m 105.265,0.0386 c 7.5083,1.97303 14.8482,4.35548 21.9955,7.12633 l -2.4467,4.23843 -3.2617,5.65058 -13.0562,0 -6.5272,-11.30503 0,-0.002 z m -139.7946,12.4128 0.1329,0 6.5291,11.30502 -6.5291,11.30503 -13.0524,0 -6.5272,-11.30503 0.8457,-1.4661 c 6.0089,-3.58396 12.2165,-6.86819 18.601,-9.83892 z m 49.4585,0 13.0544,0 6.5252,11.30502 -3.2618,5.65252 -3.2634,5.65251 -13.0544,0 -6.5272,-11.30503 z m 62.3799,0 13.0524,0 6.5272,11.30502 -3.2655,5.65252 -3.2617,5.65251 -13.0524,0 -6.5272,-11.30503 z m 62.3703,0.0115 c 6.4625,3.00806 12.7451,6.33569 18.8224,9.97185 l 0.763,1.32161 -3.2617,5.65252 -3.2636,5.65251 -13.0544,0 -6.527,-11.30503 z m -205.4344,17.99596 0.1715,0 6.5253,11.30502 -3.2636,5.65251 -3.2617,5.65252 -13.0543,0 -3.2636,-5.65252 -1.7031,-2.95148 c 5.6821,-4.98554 11.6405,-9.66074 17.8495,-14.00605 z m 49.4951,0 13.0525,0 6.5272,11.30502 -6.5272,11.30503 -13.0525,0 -6.5271,-11.30503 z m 62.38,0 13.0524,0 6.5272,11.30309 -6.5272,11.30696 -13.0543,0 -3.2636,-5.65252 -3.2617,-5.65251 z m 62.3761,0 13.0524,0 6.5291,11.30502 -3.2636,5.65251 -3.2617,5.65252 -13.0562,0 -6.5272,-11.30503 0,-0.002 z m 62.3799,0 0.01,0 c 6.2482,4.37265 12.2431,9.08158 17.9575,14.10238 l -4.9108,8.50767 -13.0543,0 -3.2618,-5.65252 -3.2635,-5.65251 z m -218.3249,18.00751 13.0524,0 6.5291,11.3031 -6.5291,11.30503 -13.0524,0 -6.5272,-11.30311 z m 62.378,0 13.0544,0 6.5252,11.30502 -3.2618,5.65251 -3.2634,5.6506 -13.0544,0 -6.5272,-11.30503 z m 62.3799,0 13.0524,0 6.5272,11.30502 -3.2655,5.65251 -3.2617,5.6506 -13.0524,0 -6.5272,-11.30311 z m 62.376,0 13.0544,0 6.5253,11.30502 -3.2617,5.65251 -3.2636,5.6506 -13.0544,0 -6.527,-11.30503 z m -218.3229,18.0075 13.0543,0 6.5253,11.30311 -3.2636,5.65444 -3.2617,5.65251 -13.0543,0 -3.2636,-5.65251 -3.2617,-5.65444 z m 62.3779,0 13.0525,0 6.5272,11.30311 -6.5272,11.30695 -13.0525,0 -6.5271,-11.30695 z m 62.3781,0 13.0543,0 6.5272,11.30311 -6.5272,11.30695 -13.0543,0 -3.2636,-5.65251 -3.2617,-5.65444 z m 62.378,0 13.0524,0 6.5291,11.30311 -3.2636,5.65444 -3.2617,5.65251 -13.0562,0 -6.5272,-11.30695 z m 62.378,0 13.0544,0 6.5271,11.30311 -6.5271,11.30695 -13.0544,0 -3.2617,-5.65251 -3.2635,-5.65444 z m -280.7011,18.00559 13.0524,0 6.5272,11.30696 -3.2636,5.65059 -3.2616,5.65251 -13.0544,0 -6.5271,-11.3031 0,-0.002 6.5271,-11.3031 z m 62.3781,0 13.0524,0 6.5291,11.30696 -6.5291,11.3031 -13.0524,0 -6.5272,-11.3031 z m 62.3799,0 13.0525,0 6.5252,11.30696 -3.2618,5.65059 -3.2634,5.65251 -13.0544,0 -6.5253,-11.3031 z m 62.378,0 13.0524,0 6.5272,11.30696 -3.2655,5.65059 -3.2617,5.65251 -13.0524,0 -6.5272,-11.3031 z m 62.378,0 13.0524,0 6.5253,11.30696 -3.2617,5.65059 -3.2636,5.65251 -13.0544,0 -6.5252,-11.3031 z m 62.378,0 13.0524,0 6.5272,11.30696 -3.2617,5.65059 -3.2655,5.65251 -13.0524,0 -6.5271,-11.3031 z m -331.7278,18.00944 1.6993,0 6.5271,11.30311 -3.2617,5.65444 -3.2654,5.65059 -12.0757,0 c 3.0126,-7.77622 6.4826,-15.32196 10.3764,-22.60814 z m 51.0249,0 13.0543,0 6.5253,11.30311 -3.2636,5.65444 -3.2617,5.65059 -13.0543,0 -3.2636,-5.65059 -3.2617,-5.65444 z m 62.3779,0 13.0525,0 6.5272,11.30311 -6.5272,11.30503 -13.0525,0 -3.2636,-5.65059 -3.2635,-5.65444 z m 62.3781,0 13.0543,0 6.5272,11.30118 -6.5272,11.30696 -13.0543,0 -3.2636,-5.65059 -3.2617,-5.65444 z m 62.378,0 13.0524,0 6.5291,11.30311 -3.2636,5.65444 -3.2617,5.65059 -13.0562,0 -6.5272,-11.30503 0,-0.002 z m 62.378,0 13.0544,0 6.5271,11.30118 -6.5271,11.30696 -13.0544,0 -3.2617,-5.65059 -3.2635,-5.65444 z m 62.3799,0 1.5374,0 c 3.894,7.28628 7.3637,14.8318 10.3764,22.60814 l -11.9138,0 -6.5272,-11.30503 0,-0.002 z m -343.081,18.00559 13.0524,0 6.5272,11.30503 -3.2636,5.65058 -3.2616,5.65252 -13.0544,0 -6.5271,-11.3031 0,-0.002 6.5271,-11.30117 z m 62.3781,0 13.0524,0 6.5291,11.3031 -6.5291,11.30503 -13.0524,0 -6.5272,-11.3031 z m 62.378,0 13.0544,0 6.5252,11.30503 -3.2618,5.65058 -3.2634,5.65252 -13.0544,0 -6.5272,-11.30503 z m 62.3799,0 13.0524,0 6.5272,11.30503 -3.2655,5.65058 -3.2617,5.65252 -13.0524,0 -6.5272,-11.3031 z m 62.376,0 13.0544,0 6.5253,11.30503 -3.2617,5.65058 -3.2636,5.65252 -13.0544,0 -6.527,-11.30503 z m 62.38,0 13.0524,0 6.5272,11.30503 -3.2617,5.65058 -3.2655,5.65252 -13.0524,0 -6.5271,-11.3031 z m -343.0809,18.00752 13.0524,0 6.5271,11.30309 -3.2617,5.65445 -3.2654,5.6525 -13.0524,0 -6.5272,-11.30695 z m 62.378,0 13.0543,0 6.5253,11.30309 -3.2636,5.65445 -3.2617,5.6525 -13.0543,0 -3.2636,-5.6525 -3.2617,-5.65445 z m 62.3779,0 13.0525,0 6.5272,11.30309 -6.5272,11.30695 -13.0525,0 -6.5271,-11.30695 z m 62.3781,0 13.0543,0 6.5272,11.30309 -6.5272,11.30695 -13.0543,0 -3.2636,-5.6525 -3.2617,-5.65445 z m 62.378,0 13.0524,0 6.5291,11.30309 -3.2636,5.65445 -3.2617,5.6525 -13.0562,0 -6.5272,-11.30695 z m 62.378,0 13.0544,0 6.5271,11.30309 -6.5271,11.30695 -13.0544,0 -3.2617,-5.6525 -3.2635,-5.65445 z m 62.3799,0 13.0524,0 6.5272,11.30309 -3.2636,5.65445 -3.2616,5.6525 -13.0544,0 -6.5272,-11.30695 z m -343.081,18.00559 13.0524,0 6.5272,11.30695 -3.2636,5.65251 -3.2616,5.65058 -13.0544,0 -6.5271,-11.30309 0,-0.002 z m 62.3781,0 13.0524,0 6.5291,11.30695 -6.5291,11.30309 -13.0524,0 -6.5272,-11.30309 z m 62.3799,0 13.0525,0 6.5252,11.30695 -3.2618,5.65251 -3.2634,5.65058 -13.0544,0 -6.5253,-11.30309 z m 62.378,0 13.0524,0 6.5272,11.30695 -3.2655,5.65251 -3.2617,5.65058 -13.0524,0 -6.5272,-11.30309 z m 62.378,0 13.0524,0 6.5253,11.30695 -3.2617,5.65251 -3.2636,5.65058 -13.0544,0 -6.5252,-11.30309 z m 62.378,0 13.0524,0 6.5272,11.30695 -3.2617,5.65251 -3.2655,5.65058 -13.0524,0 -6.5271,-11.30309 z m -343.0809,18.00943 13.0524,0 6.5271,11.3031 -3.2617,5.65059 -3.2654,5.65444 -13.0524,0 -6.5272,-11.30503 z m 62.378,0 13.0543,0 6.5253,11.3031 -3.2636,5.65059 -3.2617,5.65444 -13.0543,0 -3.2636,-5.65444 -3.2617,-5.65059 z m 124.756,0 13.0543,0 6.5272,11.30117 -6.5272,11.30696 -13.0543,0 -3.2636,-5.65444 -3.2617,-5.65059 z m 124.756,0 13.0544,0 6.5271,11.30117 -6.5271,11.30696 -13.0544,0 -3.2617,-5.65444 -3.2635,-5.65059 z m 62.3799,0 13.0524,0 6.5272,11.3031 -3.2636,5.65059 -3.2616,5.65444 -13.0544,0 -6.5272,-11.30503 0,-0.002 z m -242.8346,16.10215 c 17.1215,-6.1e-4 31.0017,13.8787 31.0021,31.0002 6e-4,17.12226 -13.8798,31.00274 -31.0021,31.00213 -17.1215,-4.7e-4 -31.0008,-13.88064 -31.0002,-31.00213 5e-4,-17.12073 13.8794,-30.99972 31.0002,-31.0002 z m 124.2859,0 c 17.1215,-6.1e-4 31.0017,13.8787 31.0022,31.0002 6e-4,17.12226 -13.8799,31.00274 -31.0022,31.00213 -17.1214,-4.7e-4 -31.0007,-13.88064 -31.0001,-31.00213 5e-4,-17.12073 13.8794,-30.99972 31.0001,-31.0002 z m -224.5323,1.90343 13.0524,0 6.5272,11.30503 -3.2636,5.65252 -3.2616,5.65251 -13.0544,0 -6.5271,-11.30503 z m 311.892,0 13.0524,0 6.5272,11.30503 -3.2617,5.65252 -3.2655,5.65251 -13.0524,0 -6.5271,-11.30503 z m -343.0809,18.00752 13.0524,0 6.5271,11.30503 -3.2617,5.65443 -3.2654,5.65059 -13.0524,0 -6.5272,-11.30502 z m 62.3799,0 13.0524,0 6.5253,11.30503 -3.2636,5.65443 -3.2617,5.65059 -13.0543,0 -3.2636,-5.65059 -3.2617,-5.65443 z m 124.756,0 13.0524,0 6.5272,11.3031 -6.5272,11.30695 -13.0543,0 -3.2636,-5.65059 -3.2617,-5.65443 z m 124.756,0 13.0525,0 6.5271,11.3031 -6.5271,11.30695 -13.0544,0 -3.2617,-5.65059 -3.2635,-5.65443 z m 62.378,0 13.0524,0 6.5272,11.30503 -3.2636,5.65443 -3.2616,5.65059 -13.0544,0 -6.5272,-11.30502 0,-0.002 z m -343.081,18.00751 13.0524,0 6.5272,11.30503 -3.2636,5.65059 -3.2616,5.65251 -13.0544,0 -6.5271,-11.3031 0,-0.002 6.5271,-11.30118 z m 311.892,0 13.0524,0 6.5272,11.30503 -3.2617,5.65059 -3.2655,5.65251 -13.0524,0 -6.5271,-11.3031 z m -343.0809,18.00751 13.0524,0 6.5271,11.30311 -3.2617,5.65444 -3.2654,5.65058 -13.0524,0 -2.046,-3.54486 c -1.1281,-3.33271 -2.1718,-6.69984 -3.1307,-10.09901 z m 62.378,0 13.0543,0 6.5253,11.30311 -3.2636,5.65444 -3.2617,5.65058 -13.0543,0 -3.2636,-5.65058 -3.2617,-5.65444 z m 124.756,0 13.0543,0 6.5272,11.30118 -6.5272,11.30695 -13.0543,0 -3.2636,-5.65058 -3.2617,-5.65444 z m 124.756,0 13.0544,0 6.5271,11.30118 -6.5271,11.30695 -13.0544,0 -3.2617,-5.65058 -3.2635,-5.65444 z m 62.3799,0 13.0524,0 5.0785,8.79281 c -1.029,3.66325 -2.1541,7.29127 -3.3792,10.87733 l -1.6973,2.93799 -13.0544,0 -6.5272,-11.30502 0,-0.002 z m -343.081,18.00559 13.0524,0 6.5272,11.30503 -3.2636,5.65251 -3.2616,5.65251 -13.0544,0 -6.5271,-11.30502 z m 62.3781,0 13.0524,0 6.5291,11.30503 -6.5291,11.30502 -13.0524,0 -6.5272,-11.30502 z m 62.378,0 13.0544,0 6.5252,11.30503 -3.2618,5.65251 -3.2634,5.65251 -13.0544,0 -6.5272,-11.30502 z m 62.3799,0 13.0524,0 6.5272,11.30503 -3.2655,5.65251 -3.2617,5.65251 -13.0524,0 -6.5272,-11.30502 z m 62.376,0 13.0544,0 6.5253,11.30503 -3.2617,5.65251 -3.2636,5.65251 -13.0544,0 -6.527,-11.30502 z m 62.38,0 13.0524,0 6.5272,11.30503 -3.2617,5.65251 -3.2655,5.65251 -13.0524,0 -6.5271,-11.30502 z m -280.701,18.00752 13.0524,0 6.5253,11.30503 -3.2636,5.65058 -3.2617,5.65444 -13.0543,0 -3.2636,-5.65444 -3.2617,-5.65058 z m 62.376,0 13.0525,0 6.5272,11.30503 -6.5272,11.30502 -13.0525,0 -6.5271,-11.30502 z m 62.38,0 13.0524,0 6.5272,11.30309 -6.5272,11.30696 -13.0543,0 -3.2636,-5.65444 -3.2617,-5.65058 z m 62.3761,0 13.0524,0 6.5291,11.30503 -3.2636,5.65058 -3.2617,5.65444 -13.0562,0 -6.5272,-11.30502 0,-0.002 z m 62.3799,0 13.0525,0 6.5271,11.30309 -6.5271,11.30696 -13.0544,0 -3.2617,-5.65444 -3.2635,-5.65058 z m -280.703,18.00751 13.0524,0 6.5272,11.30503 -3.2636,5.6525 -3.2616,5.6506 -13.0544,0 -6.5271,-11.3031 0,-0.002 6.5271,-11.30118 z m 62.3781,0 13.0524,0 6.5291,11.3031 -6.5291,11.30503 -13.0524,0 -6.5272,-11.3031 z m 62.378,0 13.0544,0 6.5252,11.30503 -3.2618,5.6525 -3.2634,5.6506 -13.0544,0 -6.5272,-11.30503 z m 62.3799,0 13.0524,0 6.5272,11.30503 -3.2655,5.6525 -3.2617,5.6506 -13.0524,0 -6.5272,-11.3031 z m 62.376,0 13.0544,0 6.5253,11.30503 -3.2617,5.6525 -3.2636,5.6506 -13.0544,0 -6.527,-11.30503 z m 62.38,0 13.0524,0 6.5272,11.30503 -3.2617,5.6525 -3.2655,5.6506 -13.0524,0 -6.5271,-11.3031 z m -280.7029,18.00751 13.0543,0 6.5253,11.3031 -3.2636,5.65059 -3.2617,5.65444 -13.0543,0 -3.2636,-5.65444 -3.2617,-5.65059 z m 62.3779,0 13.0525,0 6.5272,11.3031 -6.5272,11.30503 -13.0525,0 -6.5271,-11.30503 z m 62.3781,0 13.0543,0 6.5272,11.30118 -6.5272,11.30695 -13.0543,0 -3.2636,-5.65444 -3.2617,-5.65059 z m 62.378,0 13.0524,0 6.5291,11.3031 -3.2636,5.65059 -3.2617,5.65444 -13.0562,0 -6.5272,-11.30503 0,-0.002 z m 62.378,0 13.0544,0 6.5271,11.30118 -6.5271,11.30695 -13.0544,0 -3.2617,-5.65444 -3.2635,-5.65059 z m -218.323,18.00558 13.0524,0 6.5291,11.30503 -6.5291,11.30503 -13.0524,0 -6.5272,-11.30503 z m 62.378,0 13.0544,0 6.5252,11.30503 -3.2618,5.65252 -3.2634,5.65251 -13.0544,0 -6.5272,-11.30503 z m 62.3799,0 13.0524,0 6.5272,11.30503 -3.2655,5.65252 -3.2617,5.65251 -13.0524,0 -6.5272,-11.30503 z m 62.376,0 13.0544,0 6.5253,11.30503 -3.2617,5.65252 -3.2636,5.65251 -13.0544,0 -6.527,-11.30503 z m -218.321,18.00752 13.0524,0 6.5253,11.30503 -3.0344,5.25757 c -6.3449,-4.23342 -12.4256,-8.79363 -18.2175,-13.66121 z m 62.376,0 13.0525,0 6.5272,11.30503 -6.5272,11.30503 -13.0525,0 -3.2636,-5.6506 -3.2635,-5.65443 z m 62.38,0 13.0524,0 6.5272,11.3031 -6.5272,11.30696 -13.0543,0 -3.2636,-5.6506 -3.2617,-5.65443 z m 62.3761,0 13.0524,0 6.5291,11.30503 -3.2636,5.65443 -3.2617,5.6506 -13.0562,0 -6.5272,-11.30503 0,-0.002 z m 62.3799,0 13.0525,0 1.6413,2.83974 c -5.7897,4.87397 -11.8682,9.44071 -18.2117,13.68047 l -3.0092,-5.21518 z m -218.3249,18.00751 13.0524,0 6.5291,11.30117 -2.6298,4.55438 c -6.9652,-3.05784 -13.7059,-6.47329 -20.2038,-10.2223 z m 62.378,0 13.0544,0 5.3731,9.30912 c -8.0768,0.7448 -16.1002,1.94563 -24.0396,3.57954 l -0.9151,-1.58749 z m 62.3799,0 13.0524,0 6.5272,11.30503 -0.946,1.63758 c -7.9335,-1.64295 -15.9524,-2.85155 -24.0241,-3.60652 z m 62.376,0 13.0544,0 3.2328,5.60243 c -6.4937,3.75343 -13.2329,7.17297 -20.1942,10.23578 l -2.62,-4.53704 z"
       id="path3401"
       inkscape:connector-curvature="0"
       sodipodi:nodetypes="scccccscccccccccccccccccccccccccccccccccccccccccccccccccccccccccccccccccccccccccccccccccccccccccccccccccccccccccccccccccccccccccccccccccccccccccccccccccccccccccccccccccccccccccccccccccccccccccccccccccccccccccccccccccccccccccccccccccccccccccccccccccccccccccccccccccccccccccccccccccccccccccccccccccccccccccccccccccccccccccccccccccccccccccccccccccccccccccccccccccccccccccccccccccccccccccccccccccccccccccccccccccccccccccccccccccccccccccccccccccccccccccccccccccccccccccccccccccccssssssssssccccccccccccccccccccccccccccccccccccccccccccccccccccccccccccccccccccccccccccccccccccccccccccccccccccccccccccccccccccccccccccccccccccccccccccccccccccccccccccccccccccccccccccccccccccccccccccccccccccccccccccccccccccccccccccccccccccccccccccccccccccccccccccccccccccccccccccccccccccccccccccccccccccccccccccccccccccccccccccccccccccccccccccccccccccccccccccccccccccccccccccccccccccccccccccccccccccc" />
  </g>
</svg>
